<?xml version="1.0" standalone="no"?>
<!DOCTYPE svg PUBLIC "-//W3C//DTD SVG 20010904//EN"
 "http://www.w3.org/TR/2001/REC-SVG-20010904/DTD/svg10.dtd">
<svg version="1.0" xmlns="http://www.w3.org/2000/svg"
 width="512.000000pt" height="512.000000pt" viewBox="0 0 512.000000 512.000000"
 preserveAspectRatio="xMidYMid meet">
<metadata>
Created by potrace 1.11, written by Peter Selinger 2001-2013
</metadata>
<g transform="translate(0.000000,512.000000) scale(0.100000,-0.100000)"
fill="#000000" stroke="none">
<path d="M2321 5074 c133 -141 230 -307 270 -464 17 -65 22 -114 22 -205 -1
-188 -38 -326 -148 -550 -81 -165 -187 -330 -412 -641 -387 -537 -546 -793
-661 -1064 -118 -281 -162 -488 -157 -750 3 -173 4 -181 37 -325 107 -468 467
-862 928 -1017 147 -50 167 -53 360 -53 175 1 192 2 306 32 141 37 320 106
443 170 248 130 427 325 515 563 47 129 60 213 61 395 0 154 -8 293 -20 327
-2 7 -7 30 -10 51 -16 116 -68 303 -151 547 -51 151 -103 316 -115 365 -22 93
-28 213 -15 300 6 42 49 179 81 260 6 14 2 13 -13 -7 -12 -14 -22 -29 -22 -33
0 -3 -6 -12 -12 -20 -7 -7 -35 -40 -63 -72 -103 -123 -225 -195 -331 -195
-150 0 -259 120 -291 321 -9 59 -9 288 0 366 11 90 28 217 32 245 5 30 16 131
21 180 5 63 5 254 -1 315 -28 296 -173 601 -372 785 -73 67 -171 137 -268 190
l-60 33 46 -49z m290 -2687 c30 -23 35 -52 35 -189 -1 -76 1 -138 3 -138 3 0
37 32 77 70 79 77 103 85 148 49 19 -15 26 -30 26 -55 0 -32 -13 -48 -128
-164 l-127 -129 0 -188 c1 -203 0 -201 54 -164 14 9 81 48 147 86 l122 69 46
175 c26 96 54 183 63 193 21 24 85 24 105 1 27 -31 27 -62 2 -154 -14 -50 -23
-93 -21 -95 2 -3 59 27 125 66 77 45 131 70 151 70 63 0 96 -84 49 -127 -13
-11 -74 -49 -136 -84 l-113 -63 97 -27 c106 -30 121 -39 130 -86 5 -26 1 -37
-19 -57 -15 -15 -38 -26 -52 -26 -15 0 -95 19 -178 42 -84 22 -156 41 -162 41
-5 0 -41 -18 -79 -41 -37 -23 -70 -42 -72 -42 -3 0 -44 -24 -92 -53 l-88 -53
158 -92 159 -91 127 35 c155 43 156 43 213 51 42 5 48 3 68 -23 24 -31 23 -76
-3 -102 -7 -8 -60 -26 -116 -41 l-103 -27 49 -29 c27 -16 58 -34 69 -40 138
-76 165 -99 165 -143 0 -12 -12 -34 -26 -49 -36 -36 -65 -28 -203 51 -63 36
-116 65 -117 63 -2 -1 8 -40 21 -87 14 -48 21 -96 18 -112 -14 -72 -114 -79
-141 -11 -11 27 -82 284 -86 311 -2 10 -158 112 -172 112 -2 0 -36 20 -76 44
-40 25 -74 43 -76 41 -2 -2 -4 -86 -4 -186 l0 -182 125 -126 c69 -69 128 -135
131 -146 7 -23 -27 -84 -46 -86 -7 -1 -24 -3 -37 -4 -18 -2 -42 16 -97 70
l-74 72 -1 -31 c0 -17 -1 -84 -1 -148 0 -99 -3 -119 -19 -136 -26 -29 -56 -36
-89 -22 -40 17 -47 45 -45 203 0 75 -2 137 -5 137 -3 0 -36 -31 -74 -69 -77
-77 -102 -89 -146 -66 -32 16 -46 50 -37 88 4 12 64 79 134 149 l128 126 0
179 c-1 122 -4 177 -12 176 -6 -1 -61 -32 -123 -68 -62 -36 -114 -65 -116 -65
-3 0 -75 -48 -81 -54 -1 -1 -21 -71 -43 -156 -22 -85 -46 -165 -52 -177 -16
-33 -63 -46 -99 -28 -41 22 -46 55 -20 158 12 50 20 91 19 93 -2 1 -35 -16
-73 -39 -119 -71 -172 -97 -198 -97 -51 0 -87 57 -65 106 10 20 32 35 191 127
43 25 75 47 70 50 -8 4 -57 17 -68 18 -3 0 -23 6 -45 14 -22 8 -40 12 -40 9 0
-2 -13 2 -30 11 -58 30 -54 126 6 141 17 5 88 -9 202 -40 l176 -46 135 77
c210 119 208 95 18 204 -89 51 -169 92 -178 92 -10 -1 -75 -17 -145 -37 -179
-49 -204 -52 -231 -29 -55 48 -32 120 45 138 9 3 48 12 85 22 l68 18 -118 69
c-65 38 -126 75 -135 84 -23 20 -23 74 0 102 30 37 70 28 199 -46 65 -37 122
-69 127 -72 9 -5 8 1 -18 104 -26 106 -26 112 -2 141 27 31 76 35 105 9 11
-10 33 -69 56 -154 20 -75 41 -150 46 -166 5 -15 7 -32 4 -36 -3 -5 7 -15 22
-23 16 -8 69 -38 118 -67 50 -28 114 -65 143 -81 l52 -30 1 38 c0 21 0 106 0
189 l0 152 -131 130 c-113 114 -130 135 -130 163 0 42 34 79 73 79 23 0 46
-16 108 -77 l79 -76 0 39 c2 254 4 275 29 295 26 21 68 24 92 6z"/>
</g>
</svg>
